<svg width="28" height="28" viewBox="0 0 28 28" fill="none" xmlns="http://www.w3.org/2000/svg">
<path d="M25.6667 12.7984V15.2017C25.6667 15.8434 25.1533 16.3684 24.5 16.3917H22.2133C20.9533 16.3917 19.7983 15.4701 19.6933 14.2101C19.6233 13.4751 19.9033 12.7867 20.3933 12.3084C20.825 11.8651 21.42 11.6084 22.0733 11.6084H24.5C25.1533 11.6317 25.6667 12.1567 25.6667 12.7984Z" fill="white"/>
<path d="M23.8817 18.1418H22.2133C19.9967 18.1418 18.13 16.4735 17.9433 14.3502C17.8383 13.1368 18.2817 11.9235 19.1683 11.0602C19.915 10.2902 20.9533 9.8585 22.0733 9.8585H23.8817C24.22 9.8585 24.5 9.5785 24.465 9.24016C24.2083 6.40516 22.33 4.4685 19.5417 4.14183C19.2617 4.09516 18.97 4.0835 18.6667 4.0835H8.16668C7.84001 4.0835 7.52501 4.10683 7.22168 4.1535C4.24668 4.52683 2.33334 6.7435 2.33334 9.91683V18.0835C2.33334 21.3035 4.94668 23.9168 8.16668 23.9168H18.6667C21.9333 23.9168 24.185 21.8752 24.465 18.7602C24.5 18.4218 24.22 18.1418 23.8817 18.1418ZM15.1667 11.3752H8.16668C7.68834 11.3752 7.29168 10.9785 7.29168 10.5002C7.29168 10.0218 7.68834 9.62516 8.16668 9.62516H15.1667C15.645 9.62516 16.0417 10.0218 16.0417 10.5002C16.0417 10.9785 15.645 11.3752 15.1667 11.3752Z" fill="white"/>
</svg>
