<svg width="28" height="28" viewBox="0 0 28 28" fill="none" xmlns="http://www.w3.org/2000/svg">
<path d="M3.5 10.6281V17.3598C3.5 19.8331 3.5 19.8331 5.83333 21.4081L12.25 25.1181C13.2183 25.6781 14.7933 25.6781 15.75 25.1181L22.1667 21.4081C24.5 19.8331 24.5 19.8331 24.5 17.3714V10.6281C24.5 8.16643 24.5 8.16643 22.1667 6.59143L15.75 2.88143C14.7933 2.32143 13.2183 2.32143 12.25 2.88143L5.83333 6.59143C3.5 8.16643 3.5 8.16643 3.5 10.6281Z" stroke="white" stroke-width="1.5" stroke-linecap="round" stroke-linejoin="round"/>
<path d="M14 17.5C15.933 17.5 17.5 15.933 17.5 14C17.5 12.067 15.933 10.5 14 10.5C12.067 10.5 10.5 12.067 10.5 14C10.5 15.933 12.067 17.5 14 17.5Z" stroke="white" stroke-width="1.5" stroke-linecap="round" stroke-linejoin="round"/>
</svg>
