<svg width="24" height="24" viewBox="0 0 24 24" fill="none" xmlns="http://www.w3.org/2000/svg">
<path d="M16.8395 5.79639C17.2192 5.79639 17.533 6.07854 17.5827 6.44462L17.5895 6.54639V20.1642C17.5895 20.5784 17.2538 20.9142 16.8395 20.9142C16.4598 20.9142 16.146 20.632 16.0964 20.2659L16.0895 20.1642V6.54639C16.0895 6.13217 16.4253 5.79639 16.8395 5.79639Z" fill="#0A58CA"/>
<path d="M20.3857 15.5393C20.6779 15.2457 21.1527 15.2446 21.4463 15.5368C21.7132 15.8025 21.7384 16.2191 21.5212 16.5132L21.4488 16.5975L17.371 20.6941C17.1045 20.9619 16.6862 20.9862 16.3921 20.7672L16.3079 20.6941L12.2301 16.5975C11.9379 16.3039 11.939 15.829 12.2326 15.5368C12.4994 15.2712 12.9162 15.2479 13.2093 15.4664L13.2932 15.5393L16.839 19.1012L20.3857 15.5393Z" fill="#0A58CA"/>
<path d="M6.91107 3.08301C7.29077 3.08301 7.60456 3.36516 7.65423 3.73124L7.66107 3.83301V17.4508C7.66107 17.865 7.32529 18.2008 6.91107 18.2008C6.53138 18.2008 6.21758 17.9186 6.16792 17.5526L6.16107 17.4508V3.83301C6.16107 3.41879 6.49686 3.08301 6.91107 3.08301Z" fill="#0A58CA"/>
<path d="M6.37966 3.30342C6.64618 3.03566 7.06443 3.01132 7.35854 3.23039L7.44277 3.30342L11.5205 7.40008C11.8128 7.69365 11.8117 8.16852 11.5181 8.46074C11.2512 8.72639 10.8345 8.74963 10.5414 8.5311L10.4574 8.45829L6.91099 4.89519L3.36499 8.45829C3.09934 8.72517 2.68273 8.75034 2.38862 8.53316L2.30433 8.46074C2.03745 8.19509 2.01228 7.77848 2.22946 7.48437L2.30188 7.40008L6.37966 3.30342Z" fill="#0A58CA"/>
</svg>
