<svg width="73" height="72" viewBox="0 0 73 72" fill="none" xmlns="http://www.w3.org/2000/svg">
<g filter="url(#filter0_d_761_4086)">
<rect x="12.3333" y="8" width="48" height="48" rx="20" fill="white" shape-rendering="crispEdges"/>
<path d="M33.4167 34.0414C33.4167 35.1731 34.2917 36.0831 35.365 36.0831H37.5583C38.4917 36.0831 39.25 35.2898 39.25 34.2981C39.25 33.2364 38.7834 32.8515 38.095 32.6065L34.5834 31.3814C33.895 31.1364 33.4284 30.7631 33.4284 29.6898C33.4284 28.7098 34.1867 27.9048 35.12 27.9048H37.3133C38.3867 27.9048 39.2617 28.8148 39.2617 29.9465" stroke="#0A58CA" stroke-width="1.5" stroke-linecap="round" stroke-linejoin="round"/>
<path d="M36.3333 26.75V37.25" stroke="#0A58CA" stroke-width="1.5" stroke-linecap="round" stroke-linejoin="round"/>
<path d="M48 32.0002C48 38.4402 42.7734 43.6668 36.3334 43.6668C29.8934 43.6668 24.6667 38.4402 24.6667 32.0002C24.6667 25.5602 29.8934 20.3335 36.3334 20.3335" stroke="#0A58CA" stroke-width="1.5" stroke-linecap="round" stroke-linejoin="round"/>
<path d="M48 25.0002V20.3335H43.3334" stroke="#0A58CA" stroke-width="1.5" stroke-linecap="round" stroke-linejoin="round"/>
<path d="M42.1667 26.1668L48 20.3335" stroke="#0A58CA" stroke-width="1.5" stroke-linecap="round" stroke-linejoin="round"/>
</g>
<defs>
<filter id="filter0_d_761_4086" x="0.333344" y="0" width="72" height="72" filterUnits="userSpaceOnUse" color-interpolation-filters="sRGB">
<feFlood flood-opacity="0" result="BackgroundImageFix"/>
<feColorMatrix in="SourceAlpha" type="matrix" values="0 0 0 0 0 0 0 0 0 0 0 0 0 0 0 0 0 0 127 0" result="hardAlpha"/>
<feOffset dy="4"/>
<feGaussianBlur stdDeviation="6"/>
<feComposite in2="hardAlpha" operator="out"/>
<feColorMatrix type="matrix" values="0 0 0 0 0.301961 0 0 0 0 0.443137 0 0 0 0 0.47451 0 0 0 0.1 0"/>
<feBlend mode="normal" in2="BackgroundImageFix" result="effect1_dropShadow_761_4086"/>
<feBlend mode="normal" in="SourceGraphic" in2="effect1_dropShadow_761_4086" result="shape"/>
</filter>
</defs>
</svg>
